<svg version="1.1" xmlns="http://www.w3.org/2000/svg" xmlns:xlink="http://www.w3.org/1999/xlink" width="679.82642" height="239.6696" viewBox="0,0,679.82642,239.6696"><g transform="translate(100.32219,-59.52886)"><g data-paper-data="{&quot;isPaintingLayer&quot;:true}" fill-rule="nonzero" stroke-linecap="butt" stroke-linejoin="miter" stroke-miterlimit="10" stroke-dasharray="" stroke-dashoffset="0" style="mix-blend-mode: normal"><path d="M-100.32219,299.19847v-239.6696h679.73529v239.6696z" fill="#a39174" stroke="none" stroke-width="0"/><path d="M-99.41297,299.04945v-239.43592h143.22958l1.94002,128.98969z" fill="#5d345f" stroke="none" stroke-width="0"/><path d="M43.38083,188.47071v-128.9011h536.1234v128.90111z" fill="#5d345f" stroke="none" stroke-width="0"/><path d="M111.87812,177.54233c0,1.97157 -0.07693,10.98123 -0.07693,10.98123l-20.96853,-0.05699c0,0 0.04545,-4.94116 0.04545,-10.92424c0,-5.98308 4.70101,-10.83333 10.5,-10.83333c5.79899,0 10.5,4.85025 10.5,10.83333z" fill="#272425" stroke="none" stroke-width="0"/><path d="M153.78497,123.66354v-7.06329l12.33333,-8.43671l111.16667,0.18212l-0.16667,7.77463l-11.33333,7.54325z" fill="#88775c" stroke="none" stroke-width="0"/><g stroke="none" stroke-width="0"><path d="M340.32135,203.80021l-1.39991,-87.34722l15.0327,-14.70613l135.49749,0.31746l-2.16302,88.86714l-13.81383,13.14873z" fill="#88775c"/><path d="M348.70259,166.45817v-13.43912h118.71227v13.43912z" fill="#8c7550"/><path d="M349.26255,191.93651v-13.43912h118.71227v13.43912z" fill="#8c7550"/><g><path d="M348.70259,166.24819v-13.43912h118.71227v13.43912z" fill="#65543a"/><path d="M362.6155,159.75636c0,1.50764 -1.69225,2.72982 -3.77975,2.72982c-2.0875,0 -3.77975,-1.22218 -3.77975,-2.72982c0,-1.50764 1.69225,-2.72982 3.77975,-2.72982c2.0875,0 3.77975,1.22218 3.77975,2.72982z" fill="#88775c"/><path d="M462.67398,159.54638c0,1.50764 -1.69225,2.72982 -3.77975,2.72982c-2.0875,0 -3.77975,-1.22218 -3.77975,-2.72982c0,-1.50764 1.69225,-2.72982 3.77975,-2.72982c2.0875,0 3.77975,1.22218 3.77975,2.72982z" fill="#88775c"/></g><g><path d="M349.12256,191.44653v-13.43912h118.71227v13.43912z" fill="#65543a"/><path d="M363.03547,184.95473c0,1.50764 -1.69225,2.72982 -3.77975,2.72982c-2.0875,0 -3.77975,-1.22218 -3.77975,-2.72982c0,-1.50764 1.69225,-2.72982 3.77975,-2.72982c2.0875,0 3.77975,1.22218 3.77975,2.72982z" fill="#88775c"/><path d="M463.09395,184.74475c0,1.50764 -1.69225,2.72982 -3.77975,2.72982c-2.0875,0 -3.77975,-1.22218 -3.77975,-2.72982c0,-1.50764 1.69225,-2.72982 3.77975,-2.72982c2.0875,0 3.77975,1.22218 3.77975,2.72982z" fill="#88775c"/></g><g><path d="M348.35261,142.27472v-13.43912h118.71227v13.43912z" fill="#65543a"/><path d="M362.26552,135.78294c0,1.50764 -1.69225,2.72982 -3.77975,2.72982c-2.0875,0 -3.77975,-1.22218 -3.77975,-2.72982c0,-1.50764 1.69225,-2.72982 3.77975,-2.72982c2.0875,0 3.77975,1.22218 3.77975,2.72982z" fill="#88775c"/><path d="M462.324,135.57295c0,1.50764 -1.69225,2.72982 -3.77975,2.72982c-2.0875,0 -3.77975,-1.22218 -3.77975,-2.72982c0,-1.50764 1.69225,-2.72982 3.77975,-2.72982c2.0875,0 3.77975,1.22218 3.77975,2.72982z" fill="#88775c"/></g></g><g stroke="none" stroke-width="0"><path d="M89.1358,116.70899v-31.76498h37.66667v31.76498z" fill="#88775c"/><path d="M92.26022,113.75814v-25.34255h31.26944v25.34255z" fill="#e4e4e4"/></g><path d="M308.41005,201.33838z" fill="#ffffff" stroke="none" stroke-width="0"/><g fill="#72beff" stroke="none" stroke-width="0"><path d="M103.62955,106.09305v-9.7505h2.40586v9.7505z"/><path d="M114.36266,105.87341v-9.7505h2.30397v9.7505z"/><path d="M103.59782,96.63686v-3.07697h13.05294v3.07697z"/><path d="M106.10184,105.48481c0,1.55182 -1.75622,2.80982 -3.92261,2.80982c-2.1664,0 -3.92261,-1.25799 -3.92261,-2.80982c0,-1.55182 1.75622,-2.80981 3.92261,-2.80981c2.1664,0 3.92261,1.25799 3.92261,2.80981z"/><path d="M116.68212,105.58285c0,1.57197 -1.77902,2.84631 -3.97355,2.84631c-2.19453,0 -3.97355,-1.27434 -3.97355,-2.84631c0,-1.57197 1.77902,-2.84631 3.97355,-2.84631c2.19453,0 3.97355,1.27433 3.97355,2.84631z"/></g><g stroke="none" stroke-width="0"><g><path d="M-64.03087,155.20898v-31.76498l31.33334,-12.83333v31.76498z" fill="#88775c"/><path d="M-60.90645,152.25813v-25.34255l25.26944,-11.33333l0.33333,25.34255z" fill="#e4e4e4"/></g><path d="M-46.64113,124.48813l3.31342,-2.38386l-3.71433,9.64731l5.25778,-2.85533l-11.77534,18.18559l4.77253,-11.44777l-4.1285,1.10586z" data-paper-data="{&quot;index&quot;:null}" fill="#72beff"/></g><path d="M248.15101,251.15219c-9.40523,14.40095 -39.8154,21.69699 -67.92303,16.29616c-28.10762,-5.40083 -43.26891,-21.45334 -33.86368,-35.85429c9.40523,-14.40095 39.81541,-21.69699 67.92303,-16.29616c28.10762,5.40083 43.26891,21.45334 33.86368,35.85429z" fill="#88775c" stroke="#5d345f" stroke-width="7"/><g fill="#5d345f" stroke="none" stroke-width="0"><path d="M168.76723,249.17827c-0.57585,-1.08747 12.85121,-21.39476 15.55546,-23.81796c2.00066,-1.79273 6.32846,-0.17491 6.24869,1.20067c-0.08152,1.40589 -12.32709,22.56294 -15.55546,23.81796c-3.85896,1.50016 -5.60043,0.02348 -6.24869,-1.20067z"/><path d="M203.5752,256.17149c-0.57183,-1.09363 12.94967,-21.54551 15.66606,-23.9873c2.00964,-1.80647 6.33418,-0.18371 6.24868,1.20067c-0.08739,1.41487 -12.42995,22.72043 -15.66606,23.9873c-3.86821,1.51432 -5.60495,0.03043 -6.24868,-1.20067z"/><path d="M195.67071,241.72656c-1.54465,-0.2735 -11.58042,-12.90084 -11.92072,-14.75035c-0.25177,-1.3683 4.7462,-2.04092 6.07145,-1.44361c1.35444,0.61047 13.16622,13.22402 11.92072,14.75035c-1.48878,1.82446 -4.33264,1.75148 -6.07145,1.44361z"/><path d="M194.39881,238.76724c0.80364,-1.61123 24.62013,-7.37887 26.38102,-7.39074c1.72293,-0.0116 4.82572,2.21757 3.04213,3.19477c-2.41088,1.32088 -24.86342,7.70565 -26.38102,7.39074c-1.70834,-0.3545 -4.00273,-1.26883 -3.04213,-3.19477z" data-paper-data="{&quot;index&quot;:null}"/></g></g></g></svg>