<svg version="1.1" xmlns="http://www.w3.org/2000/svg" xmlns:xlink="http://www.w3.org/1999/xlink" width="221.5" height="210" viewBox="0,0,221.5,210"><g transform="translate(-129.25,-75)"><g data-paper-data="{&quot;isPaintingLayer&quot;:true}" fill-rule="nonzero" stroke-linecap="butt" stroke-linejoin="miter" stroke-miterlimit="10" stroke-dasharray="" stroke-dashoffset="0" style="mix-blend-mode: normal"><path d="M343.75,180c0,54.12391 -46.45046,98 -103.75,98c-57.29954,0 -103.75,-43.87609 -103.75,-98c0,-54.12391 46.45046,-98 103.75,-98c57.29954,0 103.75,43.87609 103.75,98z" fill="#ffccb9" stroke="#3db3c7" stroke-width="14"/><g fill="#3db3c7" stroke="none" stroke-width="0"><path d="M197.62899,224.34437c-2.32943,-3.26189 -2.03164,-79.68943 0,-89.5164c1.50306,-7.27018 11.25568,-4.64468 12.73844,0c1.51543,4.74701 4.36284,83.25405 0,89.5164c-5.21504,7.48556 -10.11616,3.67189 -12.73844,0z"/><path d="M268.94843,225.36262c-2.32943,-3.28505 -2.03164,-80.25603 0,-90.15284c1.50306,-7.32183 11.25564,-4.67772 12.7384,0c1.51543,4.78077 4.36284,83.84596 0,90.15284c-5.21504,7.53877 -10.11611,3.69796 -12.7384,0z"/><path d="M237.54369,182.19848c-3.12132,0.07781 -36.23627,-35.64934 -39.04052,-41.60706c-2.07464,-4.40761 6.18239,-9.8606 9.28937,-8.71636c3.17542,1.16948 39.4909,35.71103 39.04052,41.60706c-0.53837,7.04767 -5.77572,8.62871 -9.28937,8.71636z"/><path d="M231.73923,173.13251c-0.45038,-5.89603 35.8651,-40.43758 39.04052,-41.60706c3.10698,-1.14425 11.36396,4.30874 9.28937,8.71636c-2.80425,5.95773 -35.9192,41.68488 -39.04052,41.60706c-3.51364,-0.08765 -8.751,-1.66869 -9.28937,-8.71636z" data-paper-data="{&quot;index&quot;:null}"/></g></g></g></svg>