<svg version="1.1" xmlns="http://www.w3.org/2000/svg" xmlns:xlink="http://www.w3.org/1999/xlink" width="173.11724" height="221.0456" viewBox="0,0,173.11724,221.0456"><g transform="translate(-153.44139,-78.64441)"><g data-paper-data="{&quot;isPaintingLayer&quot;:true}" fill-rule="nonzero" stroke="none" stroke-width="0" stroke-linecap="butt" stroke-linejoin="miter" stroke-miterlimit="10" stroke-dasharray="" stroke-dashoffset="0" style="mix-blend-mode: normal"><g><g data-paper-data="{&quot;index&quot;:null}"><path d="M296.09695,80.70928c16.82352,0 30.46168,13.20382 30.46168,29.49157c0,16.28775 -20.97272,32.47802 -38.46798,29.11932c-8.36163,-1.60525 -6.13518,-6.59083 -13.56702,-16.0119c-5.33146,-6.7585 -9.89596,-5.39871 -9.89596,-13.44329c0,-16.28775 14.64577,-29.1557 31.46929,-29.1557z" fill="#3db3c7"/><path d="M292.34826,89.15846c11.71371,0 22.46621,10.75102 22.46621,23.04098c0,12.28996 -17.05677,25.20807 -28.37647,25.20807c-5.0503,0 -5.18293,-4.61894 -9.96071,-12.99992c-3.34268,-5.86358 -9.73794,-6.44895 -9.74739,-13.58721c-0.01022,-7.72424 14.29865,-21.66192 25.61836,-21.66192z" fill="#ffccb9"/></g><g><path d="M215.37236,107.80012c0,8.04458 -4.5645,6.6848 -9.89596,13.4433c-7.43185,9.42106 -5.2054,14.40664 -13.56702,16.01189c-17.49526,3.3587 -38.46798,-12.83157 -38.46798,-29.11932c0,-16.28775 13.63816,-29.49158 30.46168,-29.49158c16.82352,0 31.46929,12.86796 31.46929,29.15571z" fill="#3db3c7"/><path d="M213.27014,108.75549c-0.00945,7.13826 -6.40472,7.72362 -9.7474,13.58721c-4.77777,8.38097 -4.9104,12.99992 -9.9607,12.99992c-11.3197,0 -28.37647,-12.91811 -28.37647,-25.20807c0,-12.28996 10.7525,-23.04097 22.46622,-23.04097c11.31971,0 25.62858,13.93767 25.61836,21.66191z" fill="#ffccb9"/></g></g><path d="M318.70601,258.15844c-4.2991,26.80627 -31.66001,41.1931 -42.63113,41.53157c-7.58626,-1.55609 25.88669,-27.20014 25.88669,-46.28611c0,-9.87938 -17.79375,-16.78745 -26.19501,-18.52791c-2.5075,-0.51947 2.90126,-14.16983 6.45341,-14.16983c7.36388,0 40.97247,9.47793 36.48604,37.45228z" data-paper-data="{&quot;index&quot;:null}" fill="#ffccb9"/><path d="M292.66855,178.16525c0,43.34579 -24.10862,78.48449 -53.8481,78.48449c-29.73948,0 -53.8481,-35.1387 -53.8481,-78.48449c0,-43.34579 24.10861,-78.48449 53.8481,-78.48449c29.73948,0 53.8481,35.1387 53.8481,78.48449z" fill="#3db3c7"/><path d="M266.18755,210.95303c0,19.18732 -12.12051,34.7417 -27.07191,34.7417c-14.9514,0 -27.07192,-15.55439 -27.07192,-34.7417c0,-19.18732 12.12052,-34.7417 27.07192,-34.7417c14.9514,0 27.07191,15.55439 27.07191,34.7417z" fill="#ffccb9"/><path d="M187.59853,252.45497c2.98657,-6.0207 12.1297,-2.36843 19.26099,-3.74859c2.67627,-0.51795 2.63041,-4.9744 3.85041,-4.9744c4.35821,0 13.67938,5.48941 13.67938,8.94592c0,1.2079 -3.92974,1.32139 -6.44201,3.204c-4.12267,3.08938 -11.69335,8.45504 -15.77017,8.6012c-6.14907,0.22046 -19.25572,-2.59941 -14.5786,-12.02814z" fill="#3db3c7"/><path d="M291.21914,252.27314c4.67712,9.42873 -8.42953,12.24861 -14.5786,12.02814c-4.07682,-0.14616 -11.6475,-5.51182 -15.77017,-8.60121c-2.51227,-1.88261 -6.44201,-1.9961 -6.44201,-3.204c0,-3.45651 9.32117,-8.94593 13.67938,-8.94593c1.22001,0 1.17413,4.45645 3.85041,4.97441c7.13129,1.38016 16.27442,-2.27212 19.26099,3.74859z" data-paper-data="{&quot;index&quot;:null}" fill="#3db3c7"/><path d="M224.92448,198.65411c0.34982,1.57173 3.78599,-0.17915 4.28772,5.09387c-0.34686,2.74744 -3.61941,2.03703 -3.64967,3.24013c-0.05401,2.14781 4.35885,3.21312 1.42234,5.99454c-2.84334,2.69317 -4.58341,-0.80457 -6.37791,-1.48586c-0.82434,-0.31297 -2.17872,3.44584 -4.98034,1.53988c-1.80032,-1.22477 -0.03769,-3.52419 -1.16293,-4.36298c-3.39825,-2.53314 -6.78527,-5.68417 -8.89574,-7.68454c-4.69016,-4.44547 10.68284,-18.1584 13.76671,-15.23541c2.27158,2.15307 4.39328,7.52436 5.58983,12.90039z" data-paper-data="{&quot;index&quot;:null}" fill="#3db3c7"/><g fill="#f4eeff"><path d="M219.26577,156.29782c6.90356,0 13.40722,-0.36468 13.34616,1.41667c-0.07692,2.24394 -6.59644,1.57051 -13.5,1.57051c-6.90356,0 -12.55437,1.29628 -12.5,-1.57051c0.05126,-2.70286 5.75028,-1.41667 12.65384,-1.41667z" data-paper-data="{&quot;index&quot;:null}"/><path d="M221.42454,146.62697c6.01525,3.38761 11.86101,6.26122 10.93369,7.7834c-1.16814,1.91745 -6.51831,-1.86848 -12.53356,-5.25608c-6.01525,-3.38761 -11.57504,-5.031 -10.12092,-7.50223c1.37097,-2.32992 5.70554,1.58731 11.72079,4.97491z" data-paper-data="{&quot;index&quot;:null}"/><path d="M219.67667,165.88574c6.04621,-3.33204 11.56616,-6.79046 12.37246,-5.20086c1.01568,2.0024 -5.01921,4.55928 -11.06542,7.89132c-6.04621,3.33204 -10.3696,7.19473 -11.70565,4.65772c-1.25966,-2.39193 4.3524,-4.01614 10.39861,-7.34818z" data-paper-data="{&quot;index&quot;:null}"/></g><g data-paper-data="{&quot;index&quot;:null}" fill="#f4eeff"><path d="M271.50086,157.54782c0.05437,2.86678 -5.59644,1.57051 -12.5,1.57051c-6.90356,0 -13.42308,0.67343 -13.5,-1.57051c-0.06107,-1.78135 6.44259,-1.41667 13.34615,-1.41667c6.90356,0 12.60259,-1.28619 12.65385,1.41667z" data-paper-data="{&quot;index&quot;:null}"/><path d="M268.40905,141.48539c1.45412,2.47123 -4.10567,4.11463 -10.12092,7.50223c-6.01525,3.38761 -11.36542,7.17354 -12.53356,5.25608c-0.92732,-1.52218 4.91844,-4.39579 10.93369,-7.7834c6.01525,-3.38761 10.34982,-7.30483 11.72079,-4.97492z" data-paper-data="{&quot;index&quot;:null}"/><path d="M268.83468,173.06725c-1.33605,2.537 -5.65943,-1.32568 -11.70564,-4.65772c-6.04621,-3.33204 -12.0811,-5.88892 -11.06542,-7.89132c0.8063,-1.5896 6.32625,1.86882 12.37246,5.20086c6.04621,3.33204 11.65826,4.95624 10.3986,7.34818z" data-paper-data="{&quot;index&quot;:null}"/></g><path d="M249.42556,157.86567c0,2.68947 -4.64852,6.62878 -10.60948,6.62878c-5.96096,0 -9.99215,-4.09624 -9.83449,-6.78572c0.10782,-1.83919 4.11819,-6.46829 10.07915,-6.46829c5.96096,0 10.36481,4.7824 10.36481,6.62522z" fill="#ffccb9"/><g><path d="M234.43181,174.54289c-0.87167,-0.93025 0.17961,-3.39624 0.17961,-3.39624l2.79207,0.14766c0,0 0.29396,2.80479 -0.17961,3.39624c-0.40834,0.50999 -2.34867,0.32554 -2.79207,-0.14766z" data-paper-data="{&quot;index&quot;:null}" fill="#f4eeff"/><path d="M240.6795,174.52703c-0.47478,-0.59048 -0.18659,-3.39586 -0.18659,-3.39586l2.79176,-0.1534c0,0 1.05635,2.46382 0.1866,3.39586c-0.44242,0.47411 -2.38238,0.66255 -2.79176,0.1534z" data-paper-data="{&quot;index&quot;:null}" fill="#f4eeff"/><path d="M249.60877,168.24334c0.65428,0.68039 -2.17685,4.31174 -10.65135,4.48979c-8.73591,-0.05227 -11.12195,-4.15254 -10.42192,-4.6688c1.14169,-0.84199 6.20853,2.57321 10.33405,2.52125c4.06383,-0.05118 10.14883,-2.95619 10.73923,-2.34224z" fill="#272425"/><path d="M230.36959,166.64201c0.43645,0.20746 -0.73166,0.85986 -1.26514,1.98216c-0.53348,1.1223 -0.34133,2.32901 -0.77778,2.12155c-0.43645,-0.20746 -0.73412,-1.46433 -0.20064,-2.58663c0.53348,-1.1223 1.80711,-1.72454 2.24356,-1.51708z" fill="#272425"/><path d="M249.74212,168.3265c0.71547,1.016 0.6345,2.3051 0.23939,2.58333c-0.39511,0.27823 -0.40967,-0.94359 -1.12514,-1.95959c-0.71547,-1.016 -1.97704,-1.4616 -1.58193,-1.73983c0.39511,-0.27823 1.75221,0.10009 2.46768,1.11609z" data-paper-data="{&quot;index&quot;:null}" fill="#272425"/></g><g><g><path d="M221.37001,126.41503c3.60343,0.06891 3.47299,3.01697 3.47299,6.73858c0,3.72162 0.39794,6.90911 -3.47299,6.73858c-3.32867,-0.14664 -3.60938,-3.16361 -3.60938,-6.88523c0,-3.72162 0.00917,-6.66079 3.60938,-6.59194z" data-paper-data="{&quot;index&quot;:null}" fill="#272425"/><path d="M223.5824,129.27892c0.20385,0.927 -0.15778,2.36726 -1.07432,2.56881c-0.73438,0.16149 -1.76892,-0.5898 -1.97277,-1.5168c-0.34405,-1.56456 0.61319,-2.4674 1.07433,-2.56881c0.46114,-0.10141 1.76891,0.5898 1.97277,1.5168z" fill="#ffffff"/><path d="M212.69104,125.30637c-0.6502,-2.65901 11.99371,-7.99835 14.50143,-6.27153c0.90404,0.62252 -4.00533,1.28172 -7.38237,2.95838c-3.77998,1.87672 -6.90832,4.17501 -7.11907,3.31315z" fill="#f4eeff"/></g><g data-paper-data="{&quot;index&quot;:null}"><path d="M259.32392,133.28671c0,3.72161 -0.28071,6.73859 -3.60938,6.88523c-3.87093,0.17053 -3.47299,-3.01697 -3.47299,-6.73858c0,-3.72161 -0.13044,-6.66967 3.47299,-6.73858c3.60021,-0.06885 3.60938,2.87032 3.60938,6.59193z" data-paper-data="{&quot;index&quot;:null}" fill="#272425"/><path d="M255.47497,128.04191c0.46114,0.10141 1.41838,1.00424 1.07433,2.56881c-0.20385,0.927 -1.2384,1.67829 -1.97277,1.5168c-0.91654,-0.20155 -1.27817,-1.64181 -1.07432,-2.56881c0.20385,-0.927 1.51163,-1.6182 1.97277,-1.5168z" fill="#ffffff"/><path d="M264.39356,125.58614c-0.21075,0.86186 -3.33909,-1.43643 -7.11907,-3.31315c-3.37704,-1.67667 -8.28642,-2.33586 -7.38237,-2.95839c2.50772,-1.72682 15.15164,3.61252 14.50143,6.27153z" fill="#f4eeff"/></g></g><g fill="#3db3c7"><path d="M229.24619,229.00732c-0.55202,-0.77299 -0.48145,-18.88451 0,-21.21327c0.35619,-1.72286 2.66733,-1.10068 3.01871,0c0.35912,1.12493 1.03389,19.72924 0,21.21327c-1.23584,1.7739 -2.39729,0.87015 -3.01871,0z"/><path d="M246.14721,229.24862c-0.55202,-0.77848 -0.48145,-19.01878 0,-21.36409c0.35619,-1.7351 2.66732,-1.10851 3.0187,0c0.35912,1.13293 1.03389,19.86951 0,21.36409c-1.23584,1.78651 -2.39728,0.87633 -3.0187,0z"/><path d="M238.70502,219.01974c-0.73968,0.01844 -8.58714,-8.44805 -9.25168,-9.85989c-0.49164,-1.0445 1.46508,-2.33673 2.20136,-2.06557c0.7525,0.27714 9.35841,8.46267 9.25168,9.85989c-0.12758,1.67013 -1.36871,2.0448 -2.20136,2.06557z"/><path d="M237.32951,216.87132c-0.10673,-1.39722 8.49918,-9.58275 9.25168,-9.85989c0.73628,-0.27116 2.69299,1.02107 2.20136,2.06557c-0.66454,1.41184 -8.512,9.87833 -9.25168,9.85989c-0.83265,-0.02077 -2.07378,-0.39544 -2.20136,-2.06557z" data-paper-data="{&quot;index&quot;:null}"/></g><path d="M256.76522,185.90334c3.11669,-2.88796 18.33381,10.99775 13.59374,15.38995c-2.13294,1.97642 -5.55535,5.08898 -8.98199,7.58357c-1.13465,0.82603 0.60191,3.14521 -1.21212,4.34956c-2.82298,1.87419 -4.1348,-1.89967 -4.96264,-1.59603c-1.80208,0.66098 -3.58156,4.13884 -6.39429,1.41372c-2.90491,-2.81441 1.5197,-3.82981 1.48995,-5.9781c-0.01667,-1.20338 -3.29704,-0.52997 -3.61284,-3.28115c0.56125,-5.26702 3.97744,-3.47742 4.34499,-5.04512c1.25719,-5.36217 3.43944,-10.70914 5.73519,-12.83643z" data-paper-data="{&quot;index&quot;:null}" fill="#3db3c7"/><path d="M256.47802,126.12719c4.02315,0.26504 6.21889,3.5929 6.1641,4.6054c-0.00705,0.13027 0.39362,4.59626 0.32594,4.87344c-0.4583,1.8771 -2.84908,2.69036 -6.35459,2.45941c-2.34091,-0.15422 -6.25928,-0.13668 -7.65206,-2.39463c-1.00086,-1.6226 0.23662,-6.02104 0.25952,-6.44441c0.05476,-1.01252 3.23394,-3.36425 7.25708,-3.09921z" data-paper-data="{&quot;index&quot;:null}" fill="#3db3c7"/><path d="M221.69391,125.75219c4.02314,-0.26503 7.20231,2.0867 7.25708,3.09922c0.02291,0.42337 1.26039,4.82181 0.25952,6.44441c-1.39278,2.25794 -5.31114,2.24041 -7.65205,2.39463c-3.50551,0.23094 -5.8963,-0.58231 -6.35459,-2.45941c-0.06768,-0.27718 0.33299,-4.74316 0.32594,-4.87344c-0.05479,-1.01251 2.14095,-4.34037 6.1641,-4.60541z" data-paper-data="{&quot;index&quot;:null}" fill="#3db3c7"/></g></g></svg>